<svg version="1.1" id="Layer_1" xmlns="http://www.w3.org/2000/svg" xmlns:xlink="http://www.w3.org/1999/xlink" viewBox="0 0 512 512" xml:space="preserve" fill="#000000"><g id="SVGRepo_bgCarrier" stroke-width="0"></g><g id="SVGRepo_tracerCarrier" stroke-linecap="round" stroke-linejoin="round"></g><g id="SVGRepo_iconCarrier"> <path style="fill:#3FA9F5;" d="M256,32.003C132.289,32.003,32.003,132.289,32.003,256c0,123.71,100.287,223.997,223.997,223.997 S479.997,379.71,479.997,256C479.997,132.289,379.711,32.003,256,32.003z M256,439.997c-101.619,0-183.997-82.379-183.997-183.997 c0-101.619,82.379-183.997,183.997-183.997S439.997,154.381,439.997,256C439.997,357.618,357.619,439.997,256,439.997z"></path> <path style="fill:#1A6DA8;" d="M256,56.002C145.545,56.002,56.002,145.545,56.002,256S145.545,455.998,256,455.998 S455.998,366.455,455.998,256S366.455,56.002,256,56.002z M256,439.997c-101.619,0-183.997-82.379-183.997-183.997 c0-101.619,82.379-183.997,183.997-183.997S439.997,154.381,439.997,256C439.997,357.618,357.619,439.997,256,439.997z"></path> <rect y="248.686" width="48.065" height="15.673"></rect> <rect x="247.641" y="463.935" width="15.673" height="48.065"></rect> <rect x="247.641" width="15.673" height="48.065"></rect> <path d="M256,64.166C150.223,64.166,64.166,150.223,64.166,256S150.223,447.834,256,447.834S447.834,361.777,447.834,256 S361.777,64.166,256,64.166z M263.314,431.997V280.033h-15.673v151.925c-90.498-4.25-163.349-77.101-167.598-167.599h151.925 v-15.673H80.003C83.852,154.93,161.316,79.84,256,79.84s172.147,75.091,175.997,168.846H280.033v15.673h151.925 C427.692,355.205,354.295,428.262,263.314,431.997z"></path> <path d="M512,248.686h-24.293c-1.822-59.183-25.718-114.558-67.776-156.617C376.143,48.282,317.925,24.166,256,24.166 S135.857,48.282,92.069,92.069S24.166,194.075,24.166,256s24.115,120.143,67.903,163.931S194.075,487.834,256,487.834 s120.143-24.115,163.931-67.903c41.812-41.811,65.668-96.783,67.739-155.572H512V248.686z M256,472.16 c-119.192,0-216.16-96.969-216.16-216.16S136.808,39.84,256,39.84c116.742,0,212.151,93.029,216.023,208.846h-8.089v15.673h8.049 C467.574,379.69,372.391,472.16,256,472.16z"></path> <g> <rect x="247.641" y="248.686" style="fill:#F7931E;" width="16.718" height="15.673"></rect> <rect x="216.294" y="168.229" style="fill:#F7931E;" width="15.673" height="15.673"></rect> <rect x="247.641" y="168.229" style="fill:#F7931E;" width="16.718" height="15.673"></rect> <rect x="280.033" y="168.229" style="fill:#F7931E;" width="15.673" height="15.673"></rect> </g> </g></svg>